PathFileType	4	(X/Y/Z)	Run_500 02
DataRate	CameraRate	NumFrames	NumMarkers	Units	OrigDataRate	OrigDataStartFrame	OrigNumFrames
100	100	6	42	mm	100	86	128
Frame#	Time	RASI			RPSI			RTH1			RTH2			RTH3			LTH1			LTH2			LTH3			RTB1			RTB2			RTB3			LTB1			LTB2			LTB3			RCAL			RTOE			RMT5			LCAL			LTOE			LMT5			LACR			RACR			CLAV			C7			RUA1			RUA2			RUA3			RLEL			LUA1			LUA2			LUA3			LLEL			LMEL			RFAsuperior			RFAradius			RFAulna			LFAsuperior			LFAradius			LPSI			RMEL			LFAulna			LASI			
		X1	Y1	Z1	X2	Y2	Z2	X3	Y3	Z3	X4	Y4	Z4	X5	Y5	Z5	X6	Y6	Z6	X7	Y7	Z7	X8	Y8	Z8	X9	Y9	Z9	X10	Y10	Z10	X11	Y11	Z11	X12	Y12	Z12	X13	Y13	Z13	X14	Y14	Z14	X15	Y15	Z15	X16	Y16	Z16	X17	Y17	Z17	X18	Y18	Z18	X19	Y19	Z19	X20	Y20	Z20	X21	Y21	Z21	X22	Y22	Z22	X23	Y23	Z23	X24	Y24	Z24	X25	Y25	Z25	X26	Y26	Z26	X27	Y27	Z27	X28	Y28	Z28	X29	Y29	Z29	X30	Y30	Z30	X31	Y31	Z31	X32	Y32	Z32	X33	Y33	Z33	X34	Y34	Z34	X35	Y35	Z35	X36	Y36	Z36	X37	Y37	Z37	X38	Y38	Z38	X39	Y39	Z39	X40	Y40	Z40	X41	Y41	Z41	X42	Y42	Z42	

70	1.24	961.718343	999.548596	-224.046429	823.088721	1044.90076	-337.709828	889.496999	883.897452	-180.35421	897.340156	728.202908	-220.782559	997.7216100000001	600.313416	-224.114627	978.813491	838.341095	-515.539597	932.341455	679.327577	-492.022226	1011.517196	559.6458730000001	-486.760937	1064.146373	362.09221	-313.016189	976.743293	332.196035	-248.57971	970.281253	196.046786	-344.414919	939.8646639999999	410.255395	-430.243234	843.422991	504.714207	-492.884848	728.189355	460.027843	-447.096339	806.796773	101.849267	-359.336317	1049.11173	71.897746	-381.015078	997.501144	46.537337	-285.971728	608.796969	600.02014	-428.742204	560.383186	367.847693	-444.85832	545.274091	425.595009	-539.454841	1003.788362	1470.953709	-511.177943	988.607854	1437.152553	-184.153081	1051.892569	1413.342908	-308.968183	938.083773	1492.418796	-352.37006	878.230924	1347.049527	-123.573431	911.923917	1288.987012	-85.56654399999999	836.794335	1225.104471	-40.207172	799.263673	1174.622391	-8.333959999999999	903.261037	1380.112765	-572.022965	927.900527	1300.143544	-596.255042	851.822414	1242.303653	-623.862626	829.418545	1179.916043	-647.296597	803.588826	1162.136022	-562.102158	888.573659	1108.68327	-3.333026	1038.345932	1057.314405	-90.322192	1011.467951	1010.760039	-47.362007	880.76529	1108.818678	-640.4823730000001	1025.141608	1046.631727	-529.663088	852.791648	1039.66457	-445.560521	798.785493	1137.829021	-90.756045	1009.613788	995.101277	-575.000307	1020.317571	967.963649	-470.077065	
71	1.25	958.862003	998.084218	-224.070705	820.717571	1045.62066	-336.726437	886.550426	882.484163	-181.995786	887.481853	727.156922	-220.591169	983.239972	594.582283	-226.055144	978.964547	841.46453	-518.883106	948.184386	681.740693	-495.221133	1038.741577	569.000404	-487.534797	1035.969361	353.418845	-317.259516	944.941552	329.611607	-251.861524	933.302967	192.534948	-347.157155	979.243771	416.148475	-429.627187	876.508183	501.911356	-494.267085	764.315311	450.997094	-447.661589	765.28387	102.951889	-360.539407	1007.215295	71.355788	-381.86631	955.211553	46.665872	-286.900317	632.412318	582.233815	-432.677363	606.923524	346.279125	-446.568473	588.341222	401.028279	-542.22	1003.234586	1469.201761	-511.007247	991.543326	1436.17852	-184.466515	1051.885992	1411.570951	-309.594594	937.791072	1491.389697	-352.345902	886.1621249999999	1341.928827	-121.507841	923.466046	1285.087338	-85.142943	852.525907	1218.042365	-37.221474	819.747888	1165.222207	-3.549628	899.162648	1382.660643	-571.713291	920.288934	1302.186846	-596.29301	840.200246	1248.807016	-622.6727969999999	815.413042	1187.591214	-647.935329	791.485905	1168.703166	-562.115717	912.795479	1103.777618	-2.591933	1060.849948	1058.158078	-94.796049	1036.865652	1010.566699	-50.959647	863.763063	1113.526234	-643.060275	1007.679642	1041.67649	-536.911953	848.984794	1040.271171	-444.730909	817.251403	1127.900313	-86.02189199999999	987.978145	991.926667	-583.536302	1016.53643	968.694641	-469.594471	
72	1.26	957.3783969999999	997.2326430000001	-224.897085	819.112027	1048.002302	-335.320767	884.188842	882.43244	-183.073222	877.096213	727.4291940000001	-219.124545	966.764287	590.355291	-227.285668	978.361646	845.311324	-522.345781	963.229519	687.65261	-498.81644	1064.756995	582.9248669999999	-487.916407	1007.295257	347.154056	-319.920728	913.480961	328.051363	-254.20507	897.650055	191.013323	-349.401106	1017.869281	425.518287	-428.753469	908.276707	500.995275	-494.729938	800.560276	441.403024	-448.24238	725.382877	104.791572	-362.459771	966.932969	71.114588	-382.922002	914.303003	47.016299	-288.33629	655.2611889999999	560.274849	-435.711926	655.65906	322.806966	-448.194811	632.72709	374.559961	-544.569019	1001.296333	1469.746536	-510.684383	995.4201859999999	1436.98212	-184.729424	1052.062531	1411.443033	-310.573623	937.397294	1491.923797	-351.213645	893.415794	1340.020176	-119.325934	934.594804	1283.886975	-85.494606	867.158511	1214.481478	-35.787753	838.063079	1159.759755	-1.182709	893.800031	1387.49699	-570.641001	911.797002	1307.326366	-596.9773259999999	828.709931	1258.235547	-622.582181	801.530928	1198.000381	-649.268779	778.757783	1178.360451	-563.313623	934.377053	1103.299797	-4.177393	1081.49551	1066.354844	-101.285248	1061.181735	1016.839546	-57.528935	846.66308	1121.18628	-645.544565	991.620721	1043.860604	-544.24315	845.596078	1042.063581	-443.762789	834.211461	1122.51871	-83.911725	967.479031	995.516986	-591.269483	1013.13799	970.541512	-468.651761	
73	1.27	957.214245	997.2972559999999	-225.602559	818.171187	1051.515885	-333.526759	882.527833	883.385581	-183.865509	866.056115	729.095408	-218.42151	947.536253	587.760506	-228.961076	977.847945	850.343669	-525.637801	976.827277	696.579637	-502.137576	1088.364069	600.719793	-488.186119	977.292343	342.910778	-321.762833	883.0519420000001	326.6759	-255.462263	861.987929	190.52394	-350.360575	1054.536443	437.818946	-427.524159	938.199717	501.69896	-494.658264	837.023323	431.441413	-448.955104	686.515701	107.387321	-363.309632	927.504765	70.904073	-383.529239	874.281801	47.138694	-289.377343	678.530589	534.391294	-437.585421	706.625327	298.512176	-449.287941	678.710471	347.140907	-546.20722	998.208826	1472.652712	-510.414128	999.667953	1439.611325	-184.962844	1052.530476	1413.161536	-311.881424	937.415311	1494.539674	-349.347769	900.389716	1340.903808	-117.067348	944.576028	1285.109694	-86.313732	880.226508	1213.57814	-35.608793	853.786439	1157.277078	-0.834674	887.359917	1394.455714	-568.532642	902.585415	1315.264938	-598.191084	817.6809510000001	1269.672613	-623.418999	788.080458	1210.442167	-650.664395	765.491614	1190.759399	-564.888752	952.885669	1106.403512	-7.578251	1099.260998	1081.038286	-109.378343	1083.566769	1029.081785	-66.492008	830.199942	1131.727997	-647.5015059999999	976.966821	1052.437865	-550.983062	842.641398	1045.326725	-442.630909	849.43534	1120.960871	-84.169816	948.263482	1004.539516	-596.214757	1010.136086	973.804846	-467.466913	
74	1.28	958.310995	998.862842	-225.744423	818.120334	1055.970971	-331.283737	881.629603	885.052308	-184.850555	854.6773480000001	732.469914	-218.896822	926.425805	586.8718249999999	-231.188692	977.9078929999999	857.509558	-528.733042	988.663214	707.86847	-504.255476	1108.528374	621.191316	-488.529729	945.5527489999999	340.428333	-323.363001	852.591904	326.022505	-256.216579	825.59822	190.930568	-350.223002	1088.563733	452.312695	-426.268186	965.88343	503.368785	-494.164615	873.4943040000001	421.304737	-449.443919	648.1876600000001	111.403792	-362.50401	888.172202	70.60195	-383.788243	834.477263	47.210817	-289.801064	703.2029219999999	505.069319	-437.887121	760.186361	274.408479	-449.58733	726.68043	319.549107	-546.857253	994.624665	1477.697795	-510.325326	1003.588936	1443.97299	-185.325306	1053.214408	1416.788599	-313.479365	937.821037	1499.061652	-347.549337	907.014757	1343.9592	-115.186124	952.972044	1288.431866	-87.392336	891.611638	1214.641234	-36.313802	867.398788	1156.815921	-1.902963	880.584055	1403.43384	-565.770588	893.230734	1325.326257	-599.393282	807.322706	1282.357403	-624.445407	775.105573	1224.54607	-651.466575	752.024315	1205.537538	-565.77161	969.024977	1112.540749	-12.240752	1113.924153	1100.288087	-118.518578	1103.658647	1046.089901	-76.685669	814.914239	1145.157968	-648.63595	963.122988	1065.354172	-556.431957	840.338211	1050.168773	-441.228333	863.237407	1121.944409	-86.14416199999999	930.414182	1016.896646	-597.919282	1007.785437	978.655115	-466.123358	
75	1.29	960.481686	1002.569901	-225.390003	819.140975	1061.4912	-328.718725	881.298119	887.659552	-186.076854	843.70538	737.816318	-219.632691	905.226072	587.976674	-233.348037	978.5456	867.325546	-531.621895	998.757668	720.814602	-504.673023	1124.744942	642.8923590000001	-488.911306	912.649782	340.04912	-324.491019	820.971572	327.716746	-256.918657	788.802069	193.281656	-349.655335	1119.709538	468.188583	-425.747351	991.216999	505.247509	-493.11305	909.776573	411.14951	-449.155827	610.248824	118.245102	-360.624041	848.19205	70.15692799999999	-384.134343	793.996435	47.609876	-290.051749	730.232813	473.00098	-436.086332	816.5435639999999	251.542193	-449.180564	776.626333	292.488853	-546.240706	991.134147	1484.543859	-510.407372	1006.810739	1449.86482	-185.972897	1053.943895	1422.251727	-315.365863	938.280941	1504.97737	-346.307051	912.946867	1348.557056	-114.151163	959.9640869999999	1293.394351	-88.728641	901.600982	1217.261295	-37.593986	879.605182	1157.93286	-3.877973	874.284355	1414.350438	-563.041581	884.345539	1336.87514	-600.022812	797.624747	1296.096494	-624.831642	762.570436	1240.202033	-651.219836	739.0448	1222.256162	-565.274948	983.533491	1121.320421	-17.677794	1125.682093	1122.022591	-128.145699	1121.317113	1066.434105	-86.932406	800.855866	1161.057236	-648.831097	949.660178	1080.482306	-560.131312	839.06336	1056.456983	-439.531512	875.950506	1124.476793	-89.10054599999999	914.370955	1031.148963	-597.994377	1006.480521	984.980451	-464.57197	
